<svg xmlns="http://www.w3.org/2000/svg" width="310" height="44" viewBox="-130 3 310 44"><g fill="#0071B7"><path d="M96.594 35.915h4.72l1.913-7.125.387-1.472.09-.388.18-.59.06-.217h15.536l.777-2.83h-15.535l.91-3.332h-.016l.883-3.144h-.017l.703-2.65H104.3c-1.044.007-2.015.806-2.358 1.82l-2.002 7.306h-6.094v.008h-.613c-.732 0-1.418.402-1.896.98l-.508 1.844h8.364l-2.6 9.79z"/><path d="M106.035 20.298h11.293l.672-2.42h-11.28M-9.802 19.395c-3.158 0-5.64 2.457-5.64 5.534 0 3.315 2.652 5.854 5.58 5.854 3.04 0 5.52-2.427 5.52-5.855 0-3.078-2.48-5.535-5.46-5.535zm122.888 12.391c-.418-.143-.957-.554-1.645-1.233l-2.567-2.54h-4.96l-.194.68 3.63 3.967c.926.985 1.658 1.63 2.24 1.852.566.24 1.225.374 2.018.374h5.72l.776-2.89h-3.24c-.794-.002-1.376-.07-1.778-.21zm34.357-11.578h3.494l.373-1.464h1.896l-2.63 3.652c-.417.568-.774.926-1.06 1.083-.283.148-.672.223-1.12.223h-.82c-.644.068-1.226.568-1.464 1.232l-.314 1.188h2.12l-2.104 8.192c-.016.105-.045.284-.06.584-.015.282.15.536.49.76.345.225.897.33 1.69.33h4.54l.628-2.42h-2.436c-.537 0-.836-.06-.896-.195-.09-.12-.104-.238-.06-.344.017-.103.06-.253.09-.432l1.778-6.842.402-.38c.27-.232.69-.74 1.285-1.548l3.795-5.086h5.467l-.328 1.3h3.495l.955-3.75h-7.828l1.24-2.173h-4.018l-1.195 2.173h-4.767c-.852.022-1.658.656-2.016 1.508l-.624 2.408zm-6.288 3.954l-3.362 11.753h3.465l3.078-11.718-3.007-.128c5.795-3.226 7.248-9.957 7.248-9.957h-3.004c-3.584 10.33-11.188 8.605-11.188 8.605l-.537 3.024c2.975.106 5.375-.544 7.305-1.58z"/><path d="M140.422 19.326c1.105 0 1.986-.94 1.986-2.09s-.88-2.092-1.986-2.092c-1.09 0-1.973.94-1.973 2.092s.882 2.09 1.972 2.09zm20.031 6.469c-.21.463-.508.694-.91.694h-.36v-4.87h-3.644l-.046 12.503c-.016.747.12 1.24.373 1.464.27.224.836.328 1.72.328h3.808l.627-2.493h-2.03c-.448 0-.75-.046-.913-.136-.15-.074-.194-.39-.165-.926l.195-3.54h1.36c.595 0 1.09-.157 1.462-.448.39-.306.72-.763.986-1.375L165.1 22h-3.018l-1.63 3.795zM43.564 26.916l7.318 2.01-5.84 3.972s-1.94.747-1.523 2.167c0 0 .31.88 1.626.88h28.547l1.898-2.777H49.84l5.184-3.675s.703-.403.537-1.435c0 0-.046-.702-1.21-.978l-8.89-2.607-2.15 1.36s-1.06.702.254 1.083zm-155.644-7.813h-2.063v11.892h2.084c3.967 0 5.85-1.838 5.85-5.977 0-3.787-2.055-5.915-5.87-5.915zm167.445-.925c1.074 0 1.97-.935 1.97-2.092 0-1.15-.895-2.092-1.97-2.092-1.09 0-1.973.94-1.973 2.092 0 1.157.883 2.092 1.973 2.092z"/><path d="M68.72 32.12c.79 0 1.464-.036 2-.11a3.484 3.484 0 0 0 1.466-.554c.418-.283.775-.635 1.016-1.045a6.19 6.19 0 0 0 .598-1.344l3.914-13.018-7.143-.016.54-1.785-3.346-.008-.54 1.776-5.645-.006c-.776.096-1.522.754-1.882 1.627l-4.36 14.445 13.38.04zm1.09-13.562l3.78.015-1.285 4.287-3.795-.014 1.3-4.288zm-2.062 6.796l3.81.015-.956 3.145c-.12.396-.27.664-.45.82-.177.15-.462.23-.85.23l-2.808-.014 1.254-4.196zm-5.094-6.81l3.795.007-1.286 4.288-3.81-.008 1.3-4.287zm-2.062 6.796l3.795.015-1.254 4.19-3.795-.008 1.254-4.197zm-14.608-1.315l5.02 1.5 6.332-4.152c.54-.597.375-1.36.375-1.36 0-.813-1.567-1.104-1.567-1.104l-9.682-2.487-2.478 1.583 8.305 2.166-6.303 3.853zM-65.84 28.036v-4.758l-2.668 4.758"/><path d="M-130 3v44h310V3h-310zm40.34 32.482h-11.54v-8.35c-.343 2.33-1.32 4.31-2.92 5.87-2.27 2.195-4.264 2.6-7.252 2.6h-7.96V14.575h7.25c3.362 0 5.722.44 7.933 2.51 1.606 1.502 2.6 3.55 2.95 6.05V14.49h11.54v4.638h-6.437v3.422h5.587v4.51h-5.587v3.914h6.438v4.51zm28.8.015h-4.98v-3.062h-4.862a11.458 11.458 0 0 1-1.822 1.583c-1.81 1.21-3.705 1.837-6.32 1.957-1.813 0-5.204-.717-8.013-3.66-1.636-1.822-2.764-4.347-2.8-7.446.08-2.667.686-4.46 2.187-6.477 2.442-3.145 5.61-4.46 8.754-4.4 3.256.12 5.58 1.264 7.17 2.69.62.463.836.694 1.33 1.225l-2.794 4.877c-.41-.627-.777-.98-1.337-1.457.03-.007-1.883-2.03-4.497-2.084-3.07.053-5.362 2.525-5.468 5.617-.052 3.116 2.532 6.007 5.596 5.864 3.07-.21 4.578-2.524 4.734-2.81l7.656-13.428h5.467v21.01zm14.125-16.043h-4.026v16.163h-5.19V19.454h-3.937v-4.878h13.152v4.878zm16.632 16.163h-5.22v-8.052h-5.31v8.052h-5.192v-21.04h5.19v7.983h5.31v-7.984h5.222v21.04zm48.265 0h-4.57L5.69 23.89v11.73H.505v-7.186a10.715 10.715 0 0 1-2.554 4.288c-2.055 2.12-4.855 3.285-7.813 3.285-2.772 0-5.184-.896-7.156-2.613v2.226h-11.22V14.576h5.162v16.388h3.967c-1.106-1.756-1.666-3.787-1.666-6.095 0-2.9 1.128-5.558 3.22-7.605 2.083-2.04 4.712-3.077 7.723-3.077 2.84 0 5.52 1.098 7.58 3.106 1.3 1.277 2.227 2.77 2.757 4.385v-7.105H5.19l7.782 11.69v-11.69h5.19v21.042zM177 44H29V6h148v38z"/></g></svg>